<svg width="44" height="44" viewBox="0 0 44 44" fill="none" xmlns="http://www.w3.org/2000/svg">
<path d="M11.261 26.3572C11.9438 25.7911 12.4932 25.0811 12.87 24.2781C13.2467 23.4751 13.4416 22.5987 13.4406 21.7118L13.4689 21.7444C13.4812 20.7012 13.721 19.6732 14.1717 18.7323C14.6223 17.7913 15.273 16.9602 16.0782 16.2967C16.8834 15.6333 17.8235 15.1536 18.8333 14.8912C19.843 14.6288 20.8979 14.59 21.9242 14.7774L21.8958 14.7449C23.1217 14.9799 24.3904 14.831 25.5287 14.3186C26.6669 13.8062 27.6193 12.9552 28.2563 11.8816C28.8931 10.808 29.1833 9.56406 29.0873 8.31947C28.9913 7.07489 28.5136 5.89021 27.7197 4.92701C26.9257 3.96381 25.8538 3.26894 24.6505 2.93721C23.4471 2.60547 22.1706 2.65299 20.9953 3.07329C19.8198 3.49358 18.8027 4.2662 18.0826 5.28578C17.3623 6.30534 16.9741 7.52225 16.9709 8.77053L16.9442 8.73812C16.932 9.78102 16.6921 10.8087 16.2417 11.7494C15.7912 12.69 15.141 13.5211 14.3362 14.1845C13.5314 14.8479 12.5916 15.3277 11.5822 15.5903C10.5729 15.853 9.51836 15.8924 8.49228 15.7054L8.519 15.7378C7.51692 15.5498 6.48359 15.6179 5.5148 15.9355C4.54601 16.2532 3.67306 16.8103 2.97688 17.5552C2.28071 18.2999 1.78381 19.2085 1.53223 20.1965C1.28065 21.1846 1.28254 22.2202 1.53772 23.2072C1.79288 24.1943 2.2931 25.101 2.99199 25.8433C3.69087 26.5858 4.56583 27.1396 5.53578 27.4538C6.50572 27.7679 7.53928 27.8321 8.54067 27.6406C9.54205 27.4489 10.4788 27.0076 11.2643 26.3575L11.261 26.3572Z" fill="#A40E0E"/>
<path d="M32.1025 17.7824C31.4771 18.4116 30.9983 19.1709 30.7 20.0062C30.4016 20.8416 30.2913 21.7324 30.3766 22.6154L30.3469 22.5857C30.4346 23.625 30.2944 24.6708 29.9362 25.6504C29.5779 26.6299 29.0103 27.5194 28.2729 28.257C27.5354 28.9944 26.6458 29.5622 25.6662 29.9202C24.6868 30.2785 23.6408 30.4187 22.6016 30.3309L22.6313 30.3606C21.3882 30.245 20.1396 30.5154 19.0557 31.1353C17.9719 31.7552 17.1057 32.6943 16.5752 33.8245C16.0447 34.9548 15.8756 36.221 16.0911 37.451C16.3067 38.6807 16.8963 39.8142 17.7795 40.6966C18.6628 41.579 19.7967 42.1676 21.0266 42.3819C22.2567 42.5964 23.5228 42.4262 24.6526 41.8947C25.7824 41.363 26.7206 40.4961 27.3395 39.4117C27.9584 38.3273 28.2279 37.0786 28.1111 35.8354L28.1424 35.8651C28.0546 34.8259 28.1947 33.78 28.5529 32.8004C28.9112 31.8209 29.4789 30.9314 30.2163 30.1938C30.9539 29.4564 31.8434 28.8886 32.8229 28.5306C33.8025 28.1723 34.8483 28.0321 35.8877 28.1199L35.8563 28.0902C36.8717 28.1814 37.8939 28.0149 38.828 27.6061C39.7619 27.1972 40.5777 26.5591 41.1995 25.7511C41.8212 24.9431 42.2291 23.991 42.3848 22.9835C42.5408 21.9758 42.4398 20.9452 42.0913 19.9869C41.7428 19.0287 41.158 18.174 40.3913 17.5019C39.6245 16.8299 38.7005 16.3622 37.7049 16.1425C36.7092 15.9227 35.6742 15.9577 34.6957 16.2443C33.7172 16.531 32.827 17.06 32.1074 17.7824H32.1025Z" fill="#A40E0E"/>
<path d="M28.4078 23.2463L28.3764 23.2759C28.5143 22.399 28.4557 21.5023 28.2047 20.6506C27.9536 19.7991 27.5166 19.0139 26.925 18.352C26.3334 17.6902 25.6019 17.1679 24.7837 16.8234C23.9656 16.4787 23.0812 16.3203 22.1942 16.3593L22.2256 16.3296C21.183 16.3595 20.1466 16.1613 19.1884 15.7493C18.2304 15.3372 17.3738 14.7208 16.6784 13.9436C15.9831 13.1661 15.4657 12.2464 15.1626 11.2486C14.8594 10.2505 14.7776 9.19856 14.923 8.16569L14.8916 8.19534C15.0774 6.96046 14.8776 5.69848 14.3196 4.58133C13.7617 3.46401 12.8727 2.54624 11.7739 1.95291C10.6752 1.35959 9.42013 1.11965 8.17997 1.26575C6.93981 1.41185 5.77495 1.93696 4.84421 2.76959C3.9135 3.60206 3.26224 4.70145 2.9793 5.9177C2.69635 7.13394 2.79548 8.40782 3.26316 9.56573C3.73083 10.7236 4.54431 11.7089 5.59262 12.3875C6.64091 13.0661 7.87301 13.4048 9.12085 13.3573L9.08789 13.3852C10.1305 13.3551 11.1671 13.553 12.1254 13.965C13.0836 14.377 13.9403 14.9933 14.6358 15.7706C15.3311 16.548 15.8485 17.4679 16.1515 18.4659C16.4546 19.4641 16.5361 20.5162 16.3905 21.5491L16.4235 21.5212C16.2855 22.3981 16.3442 23.295 16.5952 24.1465C16.8461 24.998 17.2833 25.7832 17.8749 26.4451C18.4665 27.107 19.1979 27.6292 20.0161 27.9738C20.8343 28.3184 21.7187 28.4768 22.6057 28.4378L22.5743 28.4658C23.6168 28.4363 24.6532 28.6346 25.6112 29.0468C26.569 29.4591 27.4256 30.0752 28.1209 30.8525C28.8161 31.6298 29.3334 32.5495 29.6368 33.5473C29.94 34.5451 30.0221 35.597 29.877 36.6298L29.9083 36.6018C29.7225 37.8366 29.9222 39.0987 30.4802 40.2159C31.0382 41.333 31.9271 42.2509 33.0259 42.8442C34.1247 43.4376 35.3797 43.6775 36.6199 43.5314C37.86 43.3852 39.0249 42.8601 39.9556 42.0276C40.8864 41.195 41.5376 40.0957 41.8205 38.8794C42.1034 37.6631 42.0043 36.3892 41.5367 35.2313C41.069 34.0735 40.2556 33.0881 39.2073 32.4096C38.1589 31.731 36.9269 31.3923 35.679 31.4398L35.7104 31.4102C34.6678 31.44 33.6314 31.2419 32.6732 30.8297C31.7152 30.4178 30.8586 29.8014 30.1632 29.0241C29.4679 28.2467 28.9505 27.327 28.6475 26.3291C28.3443 25.3311 28.2624 24.2791 28.4078 23.2463Z" fill="white"/>
</svg>
