<svg width="224" height="44" viewBox="0 0 224 44" fill="none" xmlns="http://www.w3.org/2000/svg">
<path d="M33.5764 19.3103C32.951 19.9394 32.4722 20.6988 32.1738 21.534C31.8755 22.3694 31.7651 23.2603 31.8504 24.1432L31.8207 24.1135C31.9085 25.1529 31.7683 26.1986 31.41 27.1783C31.0518 28.1577 30.4842 29.0473 29.7468 29.7848C29.0092 30.5222 28.1197 31.09 27.1401 31.4481C26.1606 31.8063 25.1147 31.9465 24.0755 31.8588L24.1052 31.8885C22.862 31.7728 21.6135 32.0432 20.5296 32.6631C19.4458 33.2831 18.5796 34.2221 18.0491 35.3524C17.5186 36.4826 17.3495 37.7489 17.5649 38.9788C17.7806 40.2086 18.3702 41.342 19.2534 42.2244C20.1367 43.1069 21.2706 43.6954 22.5005 43.9098C23.7306 44.1243 24.9967 43.954 26.1265 43.4225C27.2562 42.8909 28.1945 42.0239 28.8134 40.9395C29.4323 39.8551 29.7018 38.6064 29.5849 37.3633L29.6163 37.393C29.5285 36.3538 29.6686 35.3078 30.0268 34.3282C30.385 33.3487 30.9528 32.4592 31.6902 31.7216C32.4278 30.9842 33.3173 30.4165 34.2968 30.0584C35.2764 29.7002 36.3222 29.5599 37.3615 29.6477L37.3302 29.618C38.3456 29.7093 39.3678 29.5428 40.3019 29.1339C41.2358 28.725 42.0516 28.0869 42.6733 27.2789C43.2951 26.4709 43.703 25.5188 43.8587 24.5113C44.0146 23.5037 43.9137 22.473 43.5652 21.5147C43.2167 20.5565 42.6319 19.7018 41.8651 19.0298C41.0984 18.3577 40.1744 17.8901 39.1787 17.6703C38.1831 17.4505 37.148 17.4855 36.1696 17.7721C35.1911 18.0589 34.3009 18.5879 33.5813 19.3103H33.5764Z" fill="#0E4DA4"/>
<path d="M21.4041 27.9977L21.3727 27.968C22.256 28.0569 23.148 27.9485 23.9844 27.6505C24.8207 27.3525 25.5803 26.8725 26.2083 26.245C26.8362 25.6175 27.317 24.8582 27.6155 24.0221C27.9141 23.186 28.0232 22.2942 27.9349 21.4108L27.9663 21.4405C27.8785 20.4011 28.0187 19.3553 28.3768 18.3757C28.735 17.3962 29.3028 16.5067 30.0402 15.7691C30.7778 15.0317 31.6673 14.464 32.6468 14.1059C33.6264 13.7476 34.6722 13.6075 35.7115 13.6952L35.6802 13.6655C36.9235 13.7823 38.1724 13.5126 39.2568 12.8934C40.3414 12.2743 41.2083 11.3356 41.7396 10.2055C42.2709 9.07551 42.4407 7.80906 42.2259 6.57894C42.011 5.34882 41.422 4.21495 40.5389 3.33196C39.6559 2.44897 38.522 1.85985 37.2919 1.64498C36.0618 1.43009 34.7954 1.5999 33.6653 2.13124C32.5352 2.66257 31.5967 3.52958 30.9774 4.614C30.3582 5.6984 30.0885 6.94743 30.2054 8.19069L30.1757 8.15934C30.2636 9.19868 30.1237 10.2447 29.7656 11.2244C29.4076 12.204 28.8398 13.0937 28.1024 13.8313C27.3648 14.5687 26.4751 15.1365 25.4955 15.4946C24.5157 15.8526 23.4698 15.9925 22.4304 15.9046L22.4601 15.9359C21.5769 15.847 20.6847 15.9554 19.8484 16.2534C19.0122 16.5512 18.2525 17.0314 17.6245 17.6589C16.9965 18.2864 16.5159 19.0458 16.2172 19.8818C15.9187 20.7179 15.8097 21.6097 15.8979 22.4932L15.8682 22.4635C15.9557 23.5027 15.8153 24.5485 15.457 25.5279C15.0987 26.5072 14.531 27.3967 13.7936 28.1341C13.0562 28.8715 12.1667 29.4392 11.1874 29.7975C10.208 30.1558 9.16219 30.2962 8.12298 30.2087L8.15268 30.2384C6.90941 30.1216 5.66039 30.3912 4.57597 31.0105C3.49157 31.6297 2.62456 32.5683 2.09323 33.6984C1.56189 34.8285 1.39207 36.0949 1.60695 37.325C1.82183 38.5551 2.41096 39.689 3.29394 40.5719C4.17694 41.455 5.31081 42.0441 6.54093 42.2589C7.77104 42.4738 9.03749 42.304 10.1676 41.7727C11.2976 41.2413 12.2362 40.3744 12.8554 39.29C13.4747 38.2055 13.7443 36.9565 13.6275 35.7132L13.6588 35.7429C13.5711 34.7036 13.7113 33.6578 14.0695 32.6782C14.4276 31.6987 14.9954 30.8092 15.7328 30.0716C16.4703 29.3342 17.3599 28.7664 18.3393 28.4084C19.3189 28.0502 20.3647 27.9099 21.4041 27.9977Z" fill="#0E4DA4"/>
<path d="M10.3455 24.6861C10.9709 24.0571 11.4497 23.2978 11.7478 22.4623C12.0459 21.6269 12.1558 20.7359 12.0698 19.8531L12.1012 19.8828C12.0134 18.8433 12.1536 17.797 12.512 16.8172C12.8704 15.8375 13.4384 14.9478 14.1763 14.2102C14.9142 13.4727 15.804 12.9051 16.784 12.5471C17.7639 12.1891 18.8102 12.0493 19.8497 12.1376L19.8184 12.1079C21.0612 12.2243 22.3098 11.9546 23.3937 11.3354C24.4776 10.7163 25.344 9.77785 25.8752 8.64815C26.4061 7.51844 26.5758 6.25245 26.3609 5.0228C26.1461 3.79315 25.557 2.65971 24.6744 1.77704C23.7918 0.894368 22.6582 0.305438 21.4286 0.0905711C20.199 -0.124313 18.933 0.0453437 17.8034 0.576357C16.6736 1.10737 15.7352 1.97392 15.1161 3.05783C14.4969 4.14173 14.2271 5.39025 14.3436 6.63308L14.3139 6.60338C14.4016 7.64266 14.2614 8.68856 13.9032 9.66809C13.545 10.6476 12.9774 11.5372 12.2399 12.2747C11.5024 13.0122 10.6128 13.5798 9.6333 13.9379C8.65378 14.2962 7.60789 14.4364 6.56861 14.3486L6.59831 14.3783C5.58283 14.2873 4.56079 14.4541 3.6269 14.8631C2.69302 15.2722 1.87749 15.9104 1.2559 16.7186C0.63432 17.5266 0.226795 18.4787 0.0710651 19.4862C-0.0846485 20.4939 0.016482 21.5245 0.365084 22.4825C0.713687 23.4406 1.29851 24.2952 2.06533 24.9671C2.83215 25.6391 3.75617 26.1066 4.75176 26.3264C5.74734 26.546 6.78229 26.5109 7.76071 26.2243C8.73912 25.9375 9.62931 25.4085 10.3488 24.6861H10.3455Z" fill="#0E4DA4"/>
<path d="M61.4586 8.22876H66.3592V32.0767H61.4586V8.22876Z" fill="#0E4DA4"/>
<path d="M69.1346 23.9106C69.1278 22.1969 69.6297 20.5195 70.5769 19.0912C71.524 17.6629 72.8737 16.5478 74.4551 15.8873C76.0365 15.2267 77.7783 15.0503 79.46 15.3804C81.1417 15.7106 82.6876 16.5323 83.9019 17.7418C85.1161 18.9511 85.9441 20.4937 86.281 22.1741C86.618 23.8545 86.4485 25.5971 85.7943 27.1811C85.1401 28.765 84.0304 30.1194 82.6059 31.0721C81.1813 32.025 79.5062 32.5337 77.7923 32.5337C76.6548 32.5467 75.526 32.3327 74.4719 31.9044C73.4179 31.476 72.4599 30.8419 71.6538 30.0392C70.8476 29.2363 70.2097 28.2807 69.7773 27.2285C69.3446 26.1763 69.1262 25.0483 69.1346 23.9106ZM81.5494 23.9106C81.529 23.1719 81.2912 22.4556 80.866 21.8512C80.4406 21.247 79.8466 20.7813 79.1582 20.5129C78.4696 20.2442 77.7174 20.1845 76.9952 20.3413C76.2729 20.498 75.6129 20.864 75.0976 21.3938C74.5825 21.9235 74.2347 22.5934 74.0982 23.3197C73.9616 24.0459 74.0419 24.7964 74.3295 25.4772C74.6171 26.158 75.0989 26.7388 75.7147 27.1472C76.3307 27.5555 77.0534 27.7733 77.7923 27.7733C78.2984 27.7869 78.8018 27.6953 79.2709 27.5046C79.7398 27.3138 80.1642 27.028 80.5172 26.6652C80.8701 26.3022 81.1442 25.87 81.3217 25.396C81.4994 24.9219 81.577 24.4162 81.5494 23.9106Z" fill="#0E4DA4"/>
<path d="M105.981 15.7429V31.2532C105.981 36.7412 101.701 39.0611 97.3567 39.0611C95.8271 39.1757 94.2954 38.8666 92.9297 38.1682C91.5641 37.4695 90.4172 36.4084 89.6148 35.1011L93.796 32.6838C94.1332 33.3652 94.6706 33.9274 95.3361 34.2952C96.0017 34.6628 96.7637 34.8186 97.5201 34.7414C98.0035 34.8084 98.4959 34.7658 98.9607 34.6168C99.4254 34.4678 99.8508 34.2162 100.205 33.8807C100.56 33.5451 100.834 33.1342 101.008 32.6782C101.182 32.2223 101.252 31.733 101.211 31.2466V29.7533C100.637 30.4554 99.907 31.0133 99.0785 31.3821C98.2501 31.7508 97.3468 31.9203 96.441 31.8769C94.2857 31.8089 92.2415 30.905 90.7409 29.3563C89.2404 27.8078 88.4013 25.736 88.4013 23.5797C88.4013 21.4235 89.2404 19.3517 90.7409 17.8031C92.2415 16.2544 94.2857 15.3505 96.441 15.2825C97.3468 15.2391 98.2501 15.4086 99.0785 15.7774C99.907 16.1462 100.637 16.704 101.211 17.4061V15.7396L105.981 15.7429ZM101.213 23.5822C101.246 22.7925 101.042 22.0109 100.627 21.3381C100.212 20.6653 99.6047 20.1321 98.8842 19.8072C98.1636 19.4822 97.3623 19.3804 96.5834 19.5147C95.8044 19.649 95.0835 20.0133 94.5132 20.561C93.9431 21.1085 93.5499 21.814 93.3841 22.5869C93.2184 23.3598 93.2877 24.1647 93.5834 24.8978C93.879 25.6309 94.3872 26.2589 95.0426 26.7008C95.6979 27.1426 96.4707 27.3783 97.261 27.3773C97.776 27.4132 98.2926 27.341 98.7779 27.1651C99.2632 26.9892 99.7062 26.7135 100.078 26.3561C100.451 25.9985 100.744 25.567 100.939 25.0892C101.135 24.6115 101.228 24.0982 101.213 23.5822Z" fill="#0E4DA4"/>
<path d="M108.757 23.9106C108.75 22.1969 109.252 20.5195 110.199 19.0912C111.146 17.6629 112.496 16.5478 114.077 15.8873C115.659 15.2267 117.4 15.0503 119.082 15.3804C120.764 15.7106 122.31 16.5323 123.524 17.7418C124.738 18.9511 125.566 20.4937 125.903 22.1741C126.24 23.8545 126.071 25.5971 125.417 27.1811C124.762 28.765 123.653 30.1194 122.228 31.0721C120.804 32.025 119.128 32.5337 117.415 32.5337C116.277 32.5467 115.148 32.3327 114.094 31.9044C113.04 31.476 112.082 30.8419 111.276 30.0392C110.47 29.2363 109.832 28.2807 109.399 27.2285C108.967 26.1763 108.748 25.0483 108.757 23.9106ZM121.172 23.9106C121.151 23.1719 120.913 22.4556 120.488 21.8512C120.063 21.247 119.469 20.7813 118.78 20.5129C118.092 20.2442 117.339 20.1845 116.617 20.3413C115.895 20.498 115.235 20.864 114.72 21.3938C114.205 21.9235 113.857 22.5934 113.72 23.3197C113.584 24.0459 113.664 24.7964 113.952 25.4772C114.239 26.158 114.721 26.7388 115.337 27.1472C115.953 27.5555 116.675 27.7733 117.415 27.7733C117.921 27.7869 118.424 27.6953 118.893 27.5046C119.362 27.3138 119.786 27.028 120.139 26.6652C120.492 26.3022 120.766 25.87 120.944 25.396C121.122 24.9219 121.199 24.4162 121.172 23.9106Z" fill="#0E4DA4"/>
<path d="M128.358 11.3654C128.358 10.7839 128.53 10.2154 128.853 9.73185C129.176 9.2483 129.635 8.87142 130.173 8.64888C130.71 8.42632 131.301 8.36809 131.872 8.48155C132.442 8.59501 132.966 8.87505 133.377 9.28627C133.788 9.69747 134.068 10.2214 134.182 10.7918C134.295 11.3621 134.237 11.9533 134.015 12.4906C133.792 13.0279 133.415 13.4871 132.931 13.8103C132.448 14.1333 131.88 14.3058 131.298 14.3058C130.521 14.298 129.777 13.9858 129.227 13.436C128.678 12.8862 128.365 12.1428 128.358 11.3654ZM128.853 15.7429H133.755V32.0783H128.846L128.853 15.7429Z" fill="#0E4DA4"/>
<path d="M154.915 23.9107C154.971 24.9903 154.814 26.0704 154.452 27.089C154.09 28.1075 153.53 29.0444 152.804 29.8458C152.078 30.6471 151.201 31.2972 150.224 31.7586C149.246 32.2197 148.187 32.4833 147.107 32.5337C146.199 32.5832 145.291 32.4301 144.449 32.0854C143.608 31.7406 142.853 31.2129 142.241 30.5405V38.6108H137.34V15.743H142.241V17.2775C142.854 16.6056 143.608 16.0783 144.45 15.7339C145.291 15.3894 146.199 15.2365 147.107 15.286C148.187 15.3363 149.246 15.5996 150.224 16.061C151.202 16.5223 152.079 17.1724 152.805 17.974C153.531 18.7756 154.091 19.7128 154.453 20.7317C154.815 21.7505 154.972 22.8309 154.915 23.9107ZM150.014 23.9107C149.995 23.1462 149.751 22.4044 149.312 21.7778C148.873 21.1515 148.26 20.6684 147.548 20.3892C146.836 20.1098 146.057 20.0466 145.31 20.2077C144.562 20.3685 143.879 20.7464 143.345 21.2939C142.811 21.8415 142.45 22.5342 142.308 23.2858C142.166 24.0372 142.249 24.8137 142.546 25.5185C142.843 26.2232 143.341 26.8245 143.979 27.2474C144.616 27.6701 145.364 27.8957 146.128 27.8955C146.653 27.9189 147.177 27.831 147.666 27.6376C148.155 27.4444 148.597 27.1499 148.964 26.7736C149.331 26.3973 149.614 25.9478 149.795 25.4544C149.976 24.9611 150.051 24.4349 150.014 23.9107Z" fill="#0E4DA4"/>
<path d="M170.037 27.1759C170.037 30.9331 166.772 32.5336 163.244 32.5336C161.819 32.6626 160.387 32.3613 159.135 31.6682C157.883 30.9751 156.868 29.9224 156.22 28.6461L160.466 26.2288C160.637 26.8187 161.006 27.332 161.511 27.6827C162.015 28.0335 162.625 28.2006 163.238 28.1561C164.412 28.1561 165.001 27.7963 165.001 27.1446C165.001 25.3461 156.964 26.2948 156.964 20.6435C156.964 17.081 159.97 15.2858 163.368 15.2858C164.645 15.2454 165.909 15.5483 167.029 16.163C168.15 16.7778 169.085 17.6817 169.737 18.7806L165.556 21.0345C165.373 20.6067 165.067 20.2422 164.678 19.9866C164.289 19.731 163.833 19.5957 163.368 19.5973C162.518 19.5973 161.995 19.9273 161.995 20.5115C162.002 22.3743 170.037 21.1319 170.037 27.1759Z" fill="#0E4DA4"/>
<path d="M187.939 15.7429V32.0782H183.038V30.5421C182.472 31.2199 181.754 31.754 180.942 32.1005C180.131 32.447 179.25 32.596 178.368 32.5353C175.068 32.5353 172.263 30.184 172.263 25.7702V15.7429H177.164V25.0524C177.123 25.4415 177.167 25.8349 177.294 26.205C177.42 26.5752 177.626 26.9135 177.896 27.1961C178.167 27.4788 178.495 27.6991 178.86 27.8418C179.223 27.9845 179.614 28.0462 180.005 28.0225C181.802 28.0225 183.043 26.978 183.043 24.658V15.7479L187.939 15.7429Z" fill="#0E4DA4"/>
<path d="M216.039 22.0478V32.0767H211.138V22.4718C211.138 20.8383 210.354 19.7938 208.787 19.7938C207.153 19.7938 206.237 20.9373 206.237 22.8646V32.0767H201.338V22.4718C201.338 20.8383 200.555 19.7938 198.986 19.7938C197.352 19.7938 196.438 20.9373 196.438 22.8646V32.0767H191.537V15.7414H196.438V17.2429C196.946 16.5768 197.613 16.0484 198.377 15.7064C199.142 15.3642 199.981 15.2191 200.815 15.2843C201.654 15.2432 202.489 15.4203 203.239 15.798C203.988 16.1755 204.627 16.7411 205.094 17.4392C205.637 16.7088 206.356 16.128 207.185 15.7511C208.013 15.3742 208.924 15.2137 209.831 15.2843C213.582 15.286 216.039 17.964 216.039 22.0478Z" fill="#0E4DA4"/>
<path d="M220.183 15.6422C222.192 15.6422 223.82 14.014 223.82 12.0056C223.82 9.99708 222.192 8.3689 220.183 8.3689C218.175 8.3689 216.547 9.99708 216.547 12.0056C216.547 14.014 218.175 15.6422 220.183 15.6422Z" fill="#0E4DA4"/>
</svg>
