<svg width="47" height="44" viewBox="0 0 47 44" fill="none" xmlns="http://www.w3.org/2000/svg">
<path d="M36.1025 18.7824C35.4771 19.4116 34.9983 20.1709 34.7 21.0062C34.4016 21.8416 34.2913 22.7324 34.3766 23.6154L34.3469 23.5857C34.4346 24.625 34.2944 25.6708 33.9362 26.6504C33.5779 27.6299 33.0103 28.5194 32.2729 29.257C31.5354 29.9944 30.6458 30.5622 29.6662 30.9202C28.6868 31.2785 27.6408 31.4187 26.6016 31.3309L26.6313 31.3606C25.3882 31.245 24.1396 31.5154 23.0557 32.1353C21.9719 32.7552 21.1057 33.6943 20.5752 34.8245C20.0447 35.9548 19.8756 37.221 20.0911 38.451C20.3067 39.6807 20.8963 40.8142 21.7795 41.6966C22.6628 42.579 23.7967 43.1676 25.0266 43.3819C26.2567 43.5964 27.5228 43.4262 28.6526 42.8947C29.7824 42.363 30.7206 41.4961 31.3395 40.4117C31.9584 39.3273 32.2279 38.0786 32.1111 36.8354L32.1424 36.8651C32.0546 35.8259 32.1947 34.78 32.5529 33.8004C32.9112 32.8209 33.4789 31.9314 34.2163 31.1938C34.9539 30.4564 35.8434 29.8886 36.8229 29.5306C37.8025 29.1723 38.8483 29.0321 39.8877 29.1199L39.8563 29.0902C40.8717 29.1814 41.8939 29.0149 42.828 28.6061C43.7619 28.1972 44.5777 27.5591 45.1995 26.7511C45.8212 25.9431 46.2291 24.991 46.3848 23.9835C46.5408 22.9758 46.4398 21.9452 46.0913 20.9869C45.7428 20.0287 45.158 19.174 44.3913 18.5019C43.6245 17.8299 42.7005 17.3622 41.7049 17.1425C40.7092 16.9227 39.6742 16.9577 38.6957 17.2443C37.7172 17.531 36.827 18.06 36.1074 18.7824H36.1025Z" fill="#0E14A4"/>
<path d="M21.8877 29.4432L21.8563 29.4135C22.7396 29.5025 23.6316 29.3941 24.468 29.0961C25.3042 28.7981 26.0639 28.3181 26.6919 27.6906C27.3197 27.0631 27.8006 26.3037 28.0991 25.4677C28.3977 24.6316 28.5068 23.7397 28.4185 22.8563L28.4499 22.886C28.3621 21.8467 28.5023 20.8009 28.8604 19.8212C29.2186 18.8418 29.7864 17.9522 30.5238 17.2147C31.2613 16.4773 32.1509 15.9095 33.1303 15.5515C34.11 15.1932 35.1558 15.053 36.1951 15.1408L36.1638 15.1111C37.4071 15.2279 38.656 14.9582 39.7404 14.339C40.8249 13.7198 41.6919 12.7812 42.2232 11.6511C42.7545 10.5211 42.9243 9.25461 42.7094 8.0245C42.4946 6.79438 41.9055 5.66051 41.0224 4.77751C40.1395 3.89453 39.0056 3.3054 37.7755 3.09053C36.5454 2.87565 35.279 3.04546 34.1489 3.5768C33.0188 4.10813 32.0803 4.97514 31.461 6.05956C30.8417 7.14396 30.5721 8.39298 30.689 9.63625L30.6593 9.6049C30.7472 10.6442 30.6073 11.6903 30.2492 12.6699C29.8912 13.6496 29.3234 14.5393 28.586 15.2769C27.8484 16.0143 26.9587 16.5821 25.9791 16.9401C24.9993 17.2982 23.9534 17.4381 22.914 17.3502L22.9437 17.3815C22.0604 17.2926 21.1683 17.401 20.332 17.699C19.4958 17.9968 18.7361 18.477 18.1081 19.1045C17.4801 19.732 16.9995 20.4913 16.7008 21.3274C16.4023 22.1635 16.2932 23.0553 16.3815 23.9387L16.3518 23.909C16.4393 24.9482 16.2989 25.994 15.9406 26.9735C15.5822 27.9528 15.0146 28.8423 14.2772 29.5797C13.5398 30.3171 12.6503 30.8847 11.6709 31.2431C10.6915 31.6013 9.64577 31.7417 8.60656 31.6543L8.63626 31.684C7.393 31.5672 6.14397 31.8368 5.05955 32.456C3.97515 33.0753 3.10814 34.0138 2.57681 35.1439C2.04547 36.2741 1.87565 37.5404 2.09053 38.7705C2.30542 40.0006 2.89454 41.1346 3.77753 42.0175C4.66052 42.9006 5.79439 43.4896 7.02451 43.7045C8.25463 43.9193 9.52108 43.7495 10.6511 43.2182C11.7812 42.6869 12.7198 41.82 13.339 40.7356C13.9583 39.651 14.2279 38.4021 14.1111 37.1588L14.1424 37.1885C14.0546 36.1491 14.1949 35.1034 14.5531 34.1237C14.9112 33.1443 15.4789 32.2547 16.2163 31.5172C16.9539 30.7798 17.8434 30.212 18.8229 29.8539C19.8025 29.4957 20.8483 29.3555 21.8877 29.4432Z" fill="#EE1B1B"/>
<path d="M10.3455 24.6861C10.9709 24.0571 11.4497 23.2978 11.7478 22.4623C12.0459 21.6269 12.1558 20.7359 12.0698 19.8531L12.1012 19.8828C12.0134 18.8433 12.1536 17.797 12.512 16.8172C12.8704 15.8375 13.4384 14.9478 14.1763 14.2102C14.9142 13.4727 15.804 12.9051 16.784 12.5471C17.7639 12.1891 18.8102 12.0493 19.8497 12.1376L19.8184 12.1079C21.0612 12.2243 22.3098 11.9546 23.3937 11.3354C24.4776 10.7163 25.344 9.77785 25.8752 8.64815C26.4061 7.51844 26.5758 6.25245 26.3609 5.0228C26.1461 3.79315 25.557 2.65971 24.6744 1.77704C23.7918 0.894368 22.6583 0.305438 21.4286 0.0905711C20.199 -0.124313 18.933 0.0453437 17.8034 0.576357C16.6736 1.10737 15.7352 1.97392 15.1161 3.05783C14.4969 4.14173 14.2271 5.39025 14.3436 6.63308L14.3139 6.60338C14.4017 7.64266 14.2614 8.68856 13.9032 9.66809C13.545 10.6476 12.9774 11.5372 12.2399 12.2747C11.5024 13.0122 10.6128 13.5798 9.6333 13.9379C8.65378 14.2962 7.60789 14.4364 6.56861 14.3486L6.59831 14.3783C5.58283 14.2873 4.56079 14.4541 3.6269 14.8631C2.69302 15.2722 1.87749 15.9104 1.2559 16.7186C0.63432 17.5266 0.226795 18.4787 0.0710651 19.4862C-0.0846485 20.4939 0.016482 21.5245 0.365084 22.4825C0.713687 23.4406 1.29851 24.2952 2.06533 24.9671C2.83215 25.6391 3.75617 26.1066 4.75176 26.3264C5.74734 26.546 6.78229 26.5109 7.76071 26.2243C8.73912 25.9375 9.62931 25.4085 10.3488 24.6861H10.3455Z" fill="#0E38A4"/>
</svg>
